<?xml version="1.0" encoding="utf-8"?>
<!-- Generator: Adobe Illustrator 27.0.1, SVG Export Plug-In . SVG Version: 6.00 Build 0)  -->
<svg version="1.1" id="White" xmlns="http://www.w3.org/2000/svg" xmlns:xlink="http://www.w3.org/1999/xlink" x="0px" y="0px"
	 viewBox="0 0 400 400" style="enable-background:new 0 0 400 400;" xml:space="preserve">
<style type="text/css">
	.st0{fill:#E6E6E6;}
	.st1{fill-rule:evenodd;clip-rule:evenodd;fill:#E6E6E6;}
</style>
<path class="st0" d="M200,0C89.5,0,0,89.5,0,200s89.5,200,200,200s200-89.5,200-200S310.5,0,200,0z M324.6,246.6c0,3,0,6,0,8.9
	c-0.1,2.5-0.1,5-0.1,7.5c-0.1,5.4-0.4,10.9-1.4,16.3c-1,5.5-2.6,10.6-5.1,15.5c-2.6,4.9-5.7,9.4-9.6,13.3s-8.4,7.2-13.3,9.6
	c-5,2.6-10.1,4.1-15.5,5.1c-5.5,0.9-10.9,1.3-16.4,1.4c-2.5,0.1-5,0.1-7.5,0.1c-3,0-6,0-8.9,0h-93.2c-3,0-6,0-8.9,0
	c-2.5-0.1-5-0.1-7.5-0.1c-5.5-0.1-11-0.4-16.4-1.4c-5.5-1-10.6-2.6-15.5-5.1c-4.9-2.6-9.4-5.7-13.3-9.6s-7.2-8.4-9.6-13.3
	c-2.5-5-4.1-10.1-5.1-15.5c-0.9-5.4-1.3-10.9-1.4-16.3c-0.1-2.5-0.1-5-0.1-7.5c0-3,0-6,0-8.9v-93.2c0-3,0-6,0-8.9
	c0.1-2.5,0.1-5,0.1-7.5c0.1-5.4,0.4-10.9,1.4-16.3c1-5.5,2.6-10.6,5.1-15.5s5.6-9.4,9.5-13.3s8.4-7.2,13.3-9.6
	c5-2.5,10.1-4.1,15.5-5.1c5.5-0.9,10.9-1.3,16.4-1.4c2.5-0.1,5-0.1,7.5-0.1c3,0,6,0,8.9,0h93.1c3,0,6,0,8.9,0c2.5,0.1,5,0.1,7.5,0.1
	c5.5,0.1,11,0.4,16.4,1.4c5.5,1,10.6,2.6,15.5,5.1c4.9,2.6,9.4,5.7,13.3,9.6s7.2,8.4,9.6,13.3c2.5,5,4.1,10.1,5.1,15.5
	c0.9,5.4,1.3,10.9,1.4,16.3c0.1,2.5,0.1,5,0.1,7.5c0,3,0,6,0.3,8.9L324.6,246.6L324.6,246.6z"/>
<path class="st1" d="M257.6,237.5c0,3.1,0,6-0.7,9.2c-0.6,3.1-1.8,6-3.6,8.5c-1.8,2.6-4.1,4.7-6.8,6.3s-5.6,2.6-8.7,3.1
	c-5.7,1.1-9.6,1.4-13.3,0.7c-3.5-0.7-6.6-2.3-9-4.5c-3.5-3.3-5.8-7.7-6.3-12.3c-0.6-5.4,1.2-11.2,5.3-15.5c2.1-2.1,4.6-3.8,8.1-5.2
	c3.6-1.4,7.6-2.2,13.7-3.5c1.6-0.4,3.2-0.6,4.8-1c2.1-0.4,3.9-1,5.4-2.8s1.5-4,1.5-6.2v-54.8c0-4.2-1.9-5.3-5.9-4.5
	c-2.8,0.6-64.3,13-64.3,13c-3.5,0.9-4.7,2-4.7,6.3v80.3c0,3.1-0.1,6-0.9,9.2c-0.6,3.1-1.8,6-3.6,8.5c-1.8,2.6-4.1,4.7-6.8,6.3
	s-5.6,2.6-8.7,3.2c-5.7,1.1-9.6,1.4-13.3,0.7c-3.5-0.7-6.6-2.4-9-4.6c-3.5-3.3-5.7-7.7-6.2-12.3c-0.6-5.4,1.1-11.2,5.2-15.5
	c2.1-2.1,4.6-3.8,8.1-5.2c3.6-1.4,7.6-2.2,13.7-3.5c1.6-0.4,3.2-0.6,4.8-1c2.1-0.4,3.9-1,5.4-2.8s1.6-3.9,1.6-6c0-17,0-92.6,0-92.6
	c0-1.3,0.1-2.1,0.1-2.5c0.3-1.9,1.1-3.6,2.5-4.8c1.2-1,2.7-1.6,4.6-2.1l0,0l74-14.9c0.6-0.1,6-1.1,6.6-1.1c4-0.4,6.2,2.3,6.2,6.5
	L257.6,237.5L257.6,237.5z"/>
</svg>
