<?xml version="1.0" encoding="utf-8"?>
<!-- Generator: Adobe Illustrator 27.0.1, SVG Export Plug-In . SVG Version: 6.00 Build 0)  -->
<svg version="1.1" id="White" xmlns="http://www.w3.org/2000/svg" xmlns:xlink="http://www.w3.org/1999/xlink" x="0px" y="0px"
	 viewBox="0 0 400 400" style="enable-background:new 0 0 400 400;" xml:space="preserve">
<style type="text/css">
	.st0{fill:#E6E6E6;}
</style>
<g>
	<path class="st0" d="M297.1,126.5c-4.2-10.8-12.7-19.4-23.6-23.6c-4.4-1.7-11-3.7-23.2-4.3c-13.1-0.6-17-0.7-50.3-0.7
		s-37.2,0.1-50.3,0.7c-12.2,0.6-18.8,2.6-23.2,4.3c-10.8,4.2-19.4,12.7-23.6,23.6c-1.7,4.4-3.7,11-4.3,23.2
		c-0.6,13.1-0.7,17-0.7,50.3s0.1,37.2,0.7,50.3c0.6,12.2,2.6,18.8,4.3,23.2c4.2,10.8,12.7,19.4,23.6,23.6c4.4,1.7,11,3.7,23.2,4.3
		c13.1,0.6,17,0.7,50.3,0.7s37.2-0.1,50.3-0.7c12.2-0.6,18.8-2.6,23.2-4.3c10.8-4.2,19.4-12.7,23.6-23.6c1.7-4.4,3.7-11,4.3-23.2
		c0.6-13.1,0.7-17,0.7-50.3s-0.1-37.2-0.7-50.3C300.8,137.4,298.8,130.8,297.1,126.5z M200,263.9c-35.4,0-64-28.6-64-64
		s28.7-64,64-64s64,28.6,64,64S235.4,263.9,200,263.9z M266.5,148.4c-8.3,0-14.9-6.7-14.9-14.9s6.7-14.9,14.9-14.9
		c8.3,0,14.9,6.7,14.9,14.9S274.7,148.4,266.5,148.4z"/>
	<circle class="st0" cx="200" cy="199.9" r="41.5"/>
	<path class="st0" d="M200,0C89.5,0,0,89.5,0,200s89.5,200,200,200s200-89.5,200-200S310.5,0,200,0z M323.8,251.3
		c-0.6,13.3-2.7,22.3-5.8,30.2c-6.5,16.7-19.7,30-36.4,36.4c-7.9,3.1-17,5.2-30.2,5.8c-13.3,0.6-17.5,0.8-51.4,0.8
		s-38.1-0.2-51.4-0.8c-13.3-0.6-22.3-2.7-30.2-5.8c-16.7-6.5-30-19.7-36.4-36.4c-3.1-7.9-5.2-17-5.8-30.2
		c-0.6-13.3-0.8-17.5-0.8-51.4s0.2-38.1,0.8-51.4c0.6-13.3,2.7-22.3,5.8-30.2c6.5-16.7,19.7-30,36.4-36.4c7.9-3.1,17-5.2,30.2-5.8
		c13.3-0.6,17.5-0.8,51.4-0.8s38,0.1,51.4,0.7c13.3,0.6,22.3,2.7,30.2,5.8c16.7,6.5,30,19.7,36.4,36.4c3.1,7.9,5.2,17,5.8,30.2
		c0.6,13.3,0.8,17.5,0.8,51.4S324.4,238,323.8,251.3z"/>
</g>
</svg>
