<svg xmlns="http://www.w3.org/2000/svg" width="382.05307mm" height="254.46194mm" viewBox="0 0 1082.98508 721.30943"><defs><style>.cls-1{fill:#fff;}</style></defs><g id="レイヤー_2" data-name="レイヤー 2"><g id="デザインエリア"><path d="M1068.71392,265.41943c16.8,32.11,14.8,66.95,13.32,101.69-.74,17.29-.37,34.63-.21,51.94.27,30.69-13.26,55.33-32.2,78.34-15.62,18.97-31.03,38.39-43.95,59.22-13.79,22.23-31.41,37.55-55.02,49.21-33.29,16.46-65.15,36.07-96.64,55.9-47.73,30.06-99.12,46.17-155.56,48.78-45.44,2.1-90.74,7.1-136.11,10.81l-.33-3.09c-32.08,0-64.18.66-96.24-.23-20.53-.57-41.11-2.76-55.01-21.7-1.98-2.7-7.17-4.3-10.87-4.29-41.97.1-83.95,1.22-125.91.62a76.27619,76.27619,0,0,1-33.25-8.38c-28.37-14.9-59.86-18.2-89.85-26.95-12.6-3.68-25.78-6.64-37.18-12.76-15.39-8.25-30.93-17.54-43.44-29.49-15.72-15-28.93-32.77-42.32-50.03-21.53-27.76-26.24-60.86-27.22-94.56-.85-29.45-1.02-58.95-.14-88.39,1.1-36.65,16.91-68.21,36.72-98.13,5.38-8.13,12.05-16.26,14.42-25.35,6.24-24.02,24.74-38.25,40.31-54.92,3.92-4.2,9.85-7.04,12.53-11.81,15.21-27.09,39.93-41.22,66.98-53.97,15.74-7.41,29.99-19.01,43.16-30.7,25.48-22.62,57.08-34.08,85.59-50.97,43.24-25.61,91.31-32.52,137.72-45.52,25.85-7.25,53.73-9,80.8-9.78,50.47-1.46,101.01-.94,151.51.01,12.16.23,24.99,3.69,36.2,8.64,38.8,17.13,77.22,35.14,115.38,53.67,22.57,10.96,45.49,21.83,66.28,35.7,41.87,27.93,82.15,58.23,123.55,86.88C1040.42392,205.65943,1053.47392,236.29943,1068.71392,265.41943Zm-66.61,219.88c27.25-27.57,43.23-57.41,36.92-96.88-.57-3.58.41-7.39.08-11.03-2.7-30.69,7.93-62.27-8.33-92.18-11.92-21.93-20.57-46.24-41.36-61.52-70.9-52.09-140.17-106.66-223.35-139.51-46.84-18.5-89.94-49.26-144.41-38.85a13.10286,13.10286,0,0,1-3.14-.28c-59.39-3.77-119.04-3.27-177.13,8.79-60.02,12.46-117.92,33.37-170.19,66.88-13.21,8.47-27.38,16.45-38.11,27.55-26.55,27.45-66.89,34.42-90.9,67.19-18.72,25.56-48.46,42.92-57.05,76.47a24.25753,24.25753,0,0,1-5.47,9.5c-25.13,28.5-36.42,61.89-36.22,99.64.11,22.59.7,23.45,23.93,23.38,51.56-.17,103.12-.53,154.67-.29a120.78674,120.78674,0,0,1,29.41,3.97c30.99,8.01,59.18,26.91,93.41,22.59,6.8-.86,14.23,2.85,21.32,4.66,43.71,11.13,87.26,23.23,133.2,19,6.22-.57,12.95-.82,18.82.91,51.53,15.21,104.13,18.24,145.02,15.18,39.7,0,67.1-.92,94.39.31,19.62.89,40.04,5.55,50.17,24.01,3.13,5.7,2.06,13.72.99,21.72-.94,2.71-1.6,5.8-3.59,7.93a8.63686,8.63686,0,0,1-.88.83,13.50494,13.50494,0,0,1-1.5.81c-1.09.5-2.24.82-3.36,1.21-7.58.47-15.38,1.15-19-2.41-10.47-10.3-21.67-11.33-34.29-11.38-19.45-.07-38.9.28-58.34-.21-40.3-1-81.16,1.27-120.73-4.78-35.45-5.43-70.39-10.72-106.31-10.17-12.43.19-25.01-2.6-37.34-4.94-38.53-7.31-75.51-23.19-115.94-20.25a32.56074,32.56074,0,0,1-18.11-4.59c-30.13-18.38-63.3-20.63-97.3-20.37-45.14.36-90.28.14-135.42-.22-10.66-.08-14.39,4.03-12.2,14.33,6.53,30.78,12.72,60.43,37.39,84.58,25.05,24.54,50.31,43.97,86.14,49.83,24.85,4.06,48.64,14.38,73.09,21.22,14.92,4.18,30.13,9.7,45.32,10.07,50.42,1.25,100.9.33,151.36.52,13.1.05,25.01,2.29,28.92,18.32.73,2.99,7.73,6.56,11.66,6.36,70.63-3.53,141.84,8.99,212.02-7.54,5.48-1.3,11.66.58,17.26-.44,25.59-4.69,53.52-4.9,76.14-15.9,54.43-26.46,106.51-57.79,159.13-87.87,7.86-4.49,14.55-12.09,19.95-19.57C976.30392,523.23943,986.22392,501.36943,1002.10392,485.29943Z"/><path class="cls-1" d="M1039.02392,388.41943c6.31,39.47-9.67,69.31-36.92,96.88-15.88,16.07-25.8,37.94-39.26,56.58-5.4,7.48-12.09,15.08-19.95,19.57-52.62,30.08-104.7,61.41-159.13,87.87-22.62,11-50.55,11.21-76.14,15.9-5.6,1.02-11.78-.86-17.26.44-70.18,16.53-141.39,4.01-212.02,7.54-3.93.2-10.93-3.37-11.66-6.36-3.91-16.03-15.82-18.27-28.92-18.32-50.46-.19-100.94.73-151.36-.52-15.19-.37-30.4-5.89-45.32-10.07-24.45-6.84-48.24-17.16-73.09-21.22-35.83-5.86-61.09-25.29-86.14-49.83-24.67-24.15-30.86-53.8-37.39-84.58-2.19-10.3,1.54-14.41,12.2-14.33,45.14.36,90.28.58,135.42.22,34-.26,67.17,1.99,97.3,20.37a32.56074,32.56074,0,0,0,18.11,4.59c40.43-2.94,77.41,12.94,115.94,20.25,12.33,2.34,24.91,5.13,37.34,4.94,35.92-.55,70.86,4.74,106.31,10.17,39.57,6.05,80.43,3.78,120.73,4.78,19.44.49,38.89.14,58.34.21,12.62.05,23.82,1.08,34.29,11.38,3.62,3.56,11.42,2.88,19,2.41,1.12-.39,2.27-.71,3.36-1.21a13.50494,13.50494,0,0,0,1.5-.81,8.63686,8.63686,0,0,0,.88-.83c1.99-2.13,2.65-5.22,3.59-7.93,1.07-8,2.14-16.02-.99-21.72-10.13-18.46-30.55-23.12-50.17-24.01-27.29-1.23-54.69-.31-94.39-.31-40.89,3.06-93.49.03-145.02-15.18-5.87-1.73-12.6-1.48-18.82-.91-45.94,4.23-89.49-7.87-133.2-19-7.09-1.81-14.52-5.52-21.32-4.66-34.23,4.32-62.42-14.58-93.41-22.59a120.78674,120.78674,0,0,0-29.41-3.97c-51.55-.24-103.11.12-154.67.29-23.23.07-23.82-.79-23.93-23.38-.2-37.75,11.09-71.14,36.22-99.64a24.25753,24.25753,0,0,0,5.47-9.5c8.59-33.55,38.33-50.91,57.05-76.47,24.01-32.77,64.35-39.74,90.9-67.19,10.73-11.1,24.9-19.08,38.11-27.55,52.27-33.51,110.17-54.42,170.19-66.88,58.09-12.06,117.74-12.56,177.13-8.79a13.10286,13.10286,0,0,0,3.14.28c54.47-10.41,97.57,20.35,144.41,38.85,83.18,32.85,152.45,87.42,223.35,139.51,20.79,15.28,29.44,39.59,41.36,61.52,16.26,29.91,5.63,61.49,8.33,92.18C1039.43392,381.02943,1038.45392,384.83943,1039.02392,388.41943Zm-76.65-15.71c1.22-7.02-2.3-15.79-6.12-22.48-3.76-6.59-10.06-11.95-15.91-17.09-9.62-8.45-18.67-20.84-29.9-23.54-33.83-8.15-68.57-12.54-103-18.19-16.34-2.68-32.72-6.2-49.17-6.71-7.55-.24-17.16,4.16-22.27,9.72-3.23,3.52-1.98,14.34,1.12,19.59,3.31,5.6,10.72,10.96,17.14,12.15q54.78,10.185,109.99,18.04c16.89,2.43,32.15,5.76,45.16,18.7,7.85,7.81,17.99,13.31,28.6,19.78a23.67883,23.67883,0,0,0,11.39,1.75C955.56392,380.12943,961.65392,376.87943,962.37392,372.70943Zm-411.87-117.84c-1.37-2.87-2.5-9.56-6.45-12.8-14.5-11.85-28.44-26.76-45.35-32.74-27.12-9.59-51.87-27.81-82.72-26.36-4.04.19-8.43-3.77-12.42-6.18-18.64-11.28-37.89-20.45-60.55-18.24-12.38,1.2-22.49-.86-31.82-11.21-8.87-9.83-22.29-9.2-30.09,1.7-4.42,6.17-6.92,19.39-3.31,24.54,10.51,14.98,25.58,28.79,44.73,28.16,27.96-.91,52.69,4.39,75.28,21.04,4.25,3.13,10.87,3.18,16.45,4.38,7.68,1.65,16.05,1.63,23.01,4.78,27.78,12.57,59.98,16.14,82.38,39.91,1.66,1.75,4.62,2.48,7.12,3.2C539.90392,278.82943,550.13392,271.24943,550.50392,254.86943Z"/><path d="M956.25392,350.22943c3.82,6.69,7.34,15.46,6.12,22.48-.72,4.17-6.81,7.42-12.97,11.72a23.67883,23.67883,0,0,1-11.39-1.75c-10.61-6.47-20.75-11.97-28.6-19.78-13.01-12.94-28.27-16.27-45.16-18.7q-55.17-7.95-109.99-18.04c-6.42-1.19-13.83-6.55-17.14-12.15-3.1-5.25-4.35-16.07-1.12-19.59,5.11-5.56,14.72-9.96,22.27-9.72,16.45.51,32.83,4.03,49.17,6.71,34.43,5.65,69.17,10.04,103,18.19,11.23,2.7,20.28,15.09,29.9,23.54C946.19392,338.27943,952.49392,343.63943,956.25392,350.22943Z"/><path d="M544.05392,242.06943c3.95,3.24,5.08,9.93,6.45,12.8-.37,16.38-10.6,23.96-23.74,20.18-2.5-.72-5.46-1.45-7.12-3.2-22.4-23.77-54.6-27.34-82.38-39.91-6.96-3.15-15.33-3.13-23.01-4.78-5.58-1.2-12.2-1.25-16.45-4.38-22.59-16.65-47.32-21.95-75.28-21.04-19.15.63-34.22-13.18-44.73-28.16-3.61-5.15-1.11-18.37,3.31-24.54,7.8-10.9,21.22-11.53,30.09-1.7,9.33,10.35,19.44,12.41,31.82,11.21,22.66-2.21,41.91,6.96,60.55,18.24,3.99,2.41,8.38,6.37,12.42,6.18,30.85-1.45,55.6,16.77,82.72,26.36C515.61392,215.30943,529.55392,230.21943,544.05392,242.06943Z"/></g></g></svg>