<?xml version="1.0" encoding="utf-8"?>
<!-- Generator: Adobe Illustrator 27.0.1, SVG Export Plug-In . SVG Version: 6.00 Build 0)  -->
<svg version="1.1" id="White" xmlns="http://www.w3.org/2000/svg" xmlns:xlink="http://www.w3.org/1999/xlink" x="0px" y="0px"
	 viewBox="0 0 400 400" style="enable-background:new 0 0 400 400;" xml:space="preserve">
<style type="text/css">
	.st0{fill:#E6E6E6;}
</style>
<path class="st0" d="M200,0C89.5,0,0,89.5,0,200s89.5,200,200,200s200-89.5,200-200S310.5,0,200,0z M80.4,232.5
	c-0.6,3.9-1.4,7.2-1.7,7.4c-0.8,0.5-1.1,0.4-1.4-0.4l0.1-0.1c-0.5-2.4-0.8-4.8-1.2-7.3l-0.9-6.6l1-7c0.5-3.9,1.2-7.3,1.4-7.6
	c1-1.2,1.7,0.7,2.6,7.6l1.1,7L80.4,232.5z M90.2,235.8c-0.7,5.8-1.5,11-1.7,11.6c-0.5,1.2-1.6,1.3-1.9,0.2h-0.2
	c-0.1-0.4-0.8-5.7-1.4-11.8l-1.2-11l1.3-11.2c1.2-10.7,1.4-11.2,2.2-11.4c1.1-0.2,1-0.7,2.7,12.8l1.3,10.1L90.2,235.8z M100,237.6
	c-0.7,7-1.5,13.1-1.7,13.7c-0.5,1.1-1.5,1.3-2,0.5v-0.1c-0.2-0.3-0.9-6.2-1.5-13.2l-1.2-12.7l1.1-12.1c0.6-6.6,1.2-12.9,1.3-13.9
	c0.3-1.9,1.2-2.7,2-1.9c0.3,0.3,1.1,6,1.9,13.7l1.4,13.2L100,237.6z M109.9,238.7c-0.7,7.4-1.4,13.6-1.5,13.9
	c-0.2,0.6-2.2,0.8-2.5,0.2v-0.1c-0.1-0.2-0.8-6.4-1.4-13.8l-1.2-13.4l1.2-13.9c0.6-7.7,1.4-14.2,1.6-14.5c0.6-0.7,1.5-0.7,2,0
	c0.3,0.3,1.1,6.7,1.8,14.4l1.3,13.8L109.9,238.7z M119.9,238.2c-0.6,7.4-1.3,13.8-1.5,14.4c-0.2,0.7-0.7,1-1.5,1s-1.2-0.3-1.5-1
	l0.1-0.1c-0.2-0.5-0.8-6.9-1.4-14.2c-1-12.8-1-13.4-0.3-21.6c0.4-4.6,0.8-10.2,1-12.4c0.3-4.1,1-6,2-6c1.4,0,1.8,1.6,2.9,13.9
	l1.2,12.6L119.9,238.2z M130.2,239.2c-0.7,7.6-1.4,14-1.7,14.3c-0.7,0.8-1.9,0.7-2.7-0.1v-0.1c-0.4-0.4-0.7-1.3-0.7-1.9
	c0-0.7-0.4-6.6-0.9-13.2l-0.9-12.1l1-21.3c1-21.7,1.1-22.5,2.7-22.5c0.3,0,0.9,0.2,1.3,0.6c0.6,0.5,0.9,3.2,1.8,21.5l1.2,21
	L130.2,239.2z M140.4,238.5c-0.4,4.5-0.7,9-1.1,13.5c0,0.8-1.3,1.8-2.1,1.8c-0.5,0-1.1-0.4-1.5-1v0.1c-0.5-0.7-0.9-4.8-1.6-14.6
	c-0.8-11.7-0.9-15-0.5-23.7c0.2-5.5,0.6-16.5,0.9-24.4s0.6-14.8,0.7-15.6c0.4-2.5,3.3-2.9,3.9-0.5c0.1,0.5,0.7,12.2,1.3,26.1
	l1.1,25.2L140.4,238.5z M150.8,238.4c-0.5,7.2-1,13.3-1,13.6c0,0.8-1.3,1.8-2.2,1.8c-0.5,0-1.2-0.4-1.7-0.8v0.1
	c-0.7-0.7-0.9-1.8-1.1-6.8c-0.2-3.3-0.5-8.3-0.7-11c-0.6-6.9-0.5-15.8,0.2-37.1c0.4-10.1,0.7-20.3,0.7-22.8c0.1-5.2,0.5-6.7,1.9-7.1
	c1.7-0.4,2.9,0.8,2.9,2.8c0,1,0.5,13.6,1,28l1,26.2L150.8,238.4z M161.3,238.2c-0.9,13.1-1,14.3-1.8,15.1c-0.9,0.9-2.4,0.8-3.4-0.2
	l-0.1,0.1c-0.5-0.6-0.8-1.8-1-3.6c-1.5-22.2-1.5-23.7-0.8-46.9c0.9-31.9,1.1-34.9,1.8-35.7c0.8-0.8,2.9-0.8,3.6,0
	c0.4,0.4,0.7,6,1.2,18.7C162,221,162.1,226.7,161.3,238.2z M171.6,237.4c-0.3,4.7-0.6,9.3-0.9,14c0,1.2-1.6,2.7-2.9,2.7
	c-0.7-0.1-1.4-0.4-1.8-1h0.2c-0.5-0.5-0.9-1.6-0.9-2.2c0-0.7-0.3-6.5-0.7-12.9c-0.7-10.8-0.7-13.8,0-40c0.8-30.3,0.8-29.9,3-30.3
	c1.9-0.4,3.2,1.3,3.2,4.3c0,1.4,0.2,8.5,0.4,15.7s0.5,18.2,0.7,24.4c0.1,6.1,0.3,11.5,0.4,11.8C172.3,224,172,230.2,171.6,237.4z
	 M182.1,239.3c-0.8,12.6-0.9,13.1-1.8,13.9c-1.3,1-2.8,1-3.9,0h0.2c-0.9-0.9-1-1.9-1.8-17.5c-0.5-9-0.4-18.6,0.5-49.4
	c0.5-16.5,0.5-16.8,3.1-16.8c0.9,0,1.8,0.3,2.2,0.9c0.9,0.9,0.9,1.6,1.3,15.7c0.1,4.5,0.5,15.4,0.7,24.1
	C182.8,224.5,182.8,227.5,182.1,239.3z M191.5,252.6c-0.9,1.7-3.4,1.9-4.8,0.6h0.1c-0.6-0.6-0.9-1.7-1.1-3.6c-0.7-7.5-1.2-26.1-1-37
	c0.1-6.8,0.4-17.2,0.5-23.3c0.5-24.6,0.7-28.5,1.6-29.4c1.1-1.1,3.2-1.1,4.2,0c1.1,1.1,1.2,4.2,2.1,51.6
	C193.4,225.8,192.5,250.9,191.5,252.6z M203.5,240.4c-0.3,3.6-0.5,7.1-0.7,10.7c0,1.1-1.9,2.9-3.2,2.9c-0.6,0-1.6-0.4-2.1-0.9
	c-0.7-0.5-1.2-1.3-1.4-2.2c-0.1-0.8-0.5-7.1-0.9-14.1c-0.5-10-0.6-16-0.3-28.3c0.2-8.6,0.5-22.7,0.7-31.5c0.3-20,0.5-22,1.7-23.1
	c1.3-1.2,3.1-1.1,4.5,0.2c1,1,1.1,1.4,1.2,6.3c0,2.9,0.1,5.8,0.2,6.4c0.1,0.6,0.2,8.8,0.4,18.4c0.2,9.5,0.4,17.4,0.5,17.5
	C204.4,203.4,204,231.6,203.5,240.4z M321.3,237.1c-3.8,7.6-9.2,12.3-17.5,15.4l-3.1,1.2l-46.3,0.1l-46.3,0.1l-1.3-0.9l-1.1-1.1
	V151.3l1.2-0.9c1.4-1.1,6.5-2.7,11.7-3.8c5.5-1.1,14.6-1,20.3,0.2c22.9,4.8,39.3,22.4,43,46.3l0.3,1.6l3.8-1.1
	c3.2-0.9,4.4-1.1,8.6-0.9c5.9,0.3,6.2,0.3,10.1,1.7C321.8,201,329.5,220.7,321.3,237.1z"/>
</svg>
