<?xml version="1.0" encoding="utf-8"?>
<!-- Generator: Adobe Illustrator 27.0.1, SVG Export Plug-In . SVG Version: 6.00 Build 0)  -->
<svg version="1.1" id="レイヤー_1" xmlns="http://www.w3.org/2000/svg" xmlns:xlink="http://www.w3.org/1999/xlink" x="0px"
	 y="0px" viewBox="0 0 170.2 170.2" style="enable-background:new 0 0 170.2 170.2;" xml:space="preserve">
<style type="text/css">
	.st0{fill:#E6E6E6;}
</style>
<g>
	<path class="st0" d="M121.5,70.6c-1.9-1.1-3.8-2.2-5.8-3c-11.4-5.1-23.4-7-35.8-7.4c-5.1-0.1-10.2,0.1-15.2,0.8
		c-4.3,0.5-8.5,1.4-12.6,2.6c-2.5,0.8-4,3.5-3.2,6.1c0.8,2.6,3.5,4.1,6.1,3.4c6.4-1.8,13-2.7,19.6-2.8c7.6-0.2,15.2,0.4,22.6,2
		c6.8,1.4,13.3,3.5,19.4,7.1c0.8,0.4,1.6,0.6,2.4,0.6c2.2,0,4.2-1.5,4.7-3.7C124.2,74,123.4,71.8,121.5,70.6z"/>
	<path class="st0" d="M108.1,103.9c-1.5-0.9-2.9-1.6-4.4-2.4c-8.5-4.1-17.5-5.8-27.5-5.8c-6.5,0.1-12.9,0.9-19.2,2.5
		c-0.6,0.1-1.1,0.4-1.5,0.8c-1.1,1-1.4,2.6-0.7,3.9c0.7,1.4,2.2,2,3.9,1.6c6.6-1.6,13.4-2.3,20.2-2.2c4,0.1,8,0.6,11.9,1.5
		c4.9,1.1,9.6,3.1,14,5.7c0.1,0,0.2,0.1,0.3,0.1c1.6,0.9,3.5,0.3,4.4-1.3S109.7,104.8,108.1,103.9z"/>
	<path class="st0" d="M114.4,88.4c-2-1.1-3.9-2.2-5.9-3.2c-10.2-4.7-20.9-6.7-32.1-6.7c-1.3,0-2.6,0-3.9-0.1
		c-5.8,0.3-11.5,1.2-17.1,2.8c-0.1,0.1-0.3,0.1-0.4,0.1c-2.2,0.8-3.3,3.1-2.5,5.3c0.8,2.2,3.1,3.3,5.3,2.5
		c5.8-1.6,11.8-2.5,17.8-2.5c4.5,0,9,0.4,13.5,1.1c7.5,1.2,14.7,3.7,21.2,7.6c0.1,0.1,0.1,0.1,0.2,0.1c2,1.1,4.4,0.4,5.6-1.5
		S116.4,89.5,114.4,88.4z"/>
	<path class="st0" d="M85.1,0C38.1,0,0,38.1,0,85.1s38.1,85.1,85.1,85.1s85.1-38.1,85.1-85.1S132.1,0,85.1,0z M85.1,138.1
		c-29.2,0-52.9-23.7-52.9-52.9c0-0.3,0-0.6,0-0.9c0.5-28.8,24-52,52.9-52c29.2,0,52.9,23.7,52.9,52.9
		C138.1,114.4,114.3,138.1,85.1,138.1z"/>
</g>
</svg>
