<?xml version="1.0" encoding="utf-8"?>
<!-- Generator: Adobe Illustrator 27.0.1, SVG Export Plug-In . SVG Version: 6.00 Build 0)  -->
<svg version="1.1" id="レイヤー_1" xmlns="http://www.w3.org/2000/svg" xmlns:xlink="http://www.w3.org/1999/xlink" x="0px"
	 y="0px" viewBox="0 0 1024 1024" style="enable-background:new 0 0 1024 1024;" xml:space="preserve">
<style type="text/css">
	.st0{fill:#E6E6E6;}
</style>
<g id="レイヤー_2_00000110446501946056322160000002200336244242860714_">
	<g id="レイヤー_1-2">
		<path class="st0" d="M1021.9,506.4c-2.8-276.3-230.4-509.4-520.4-504C227,7.5-0.3,233.3,2.3,517.1
			c2.5,279.2,230.3,505.3,510.6,504.8C796.4,1021.7,1024.8,789.4,1021.9,506.4z M844.7,636.1c-1.5,13.4-3.4,26.8-7.2,39.7
			c-10.9,36.4-35.7,57-72.9,63c-32.8,5.3-65.9,6.8-99,8.2c-44.4,2-88.8,3-133.3,3.1c-6.8,0-13.6,0-20.5,0
			c-70.1-0.3-140.2-1.1-210.1-6.4c-16.4-1.3-32.9-2.5-49-6.1c-36.3-8.2-58.9-30.8-67.6-66.9c-6.1-25.5-8.2-51.6-10-77.7
			c-2.1-30.4-3.4-60.8-2.9-91.3c0.8-44.9,2.5-89.9,9.8-134.3c2.7-16.2,6.4-32,15.9-45.8c15-21.7,35.8-33.6,61.6-37.5
			c33-5,66.2-6.7,99.5-8.2c44.2-2,88.5-2.8,132.8-3.1c48.3-0.4,96.6,0.5,144.8,2c32.4,1,64.9,2.5,97.2,5.5c12.8,1.2,25.6,2.3,38,5.3
			c38.1,9,60.2,33.5,67.9,71.4c6.7,32.9,8.7,66.3,10.4,99.7C853.3,516.5,851.5,576.5,844.7,636.1z"/>
		<path class="st0" d="M442.7,612V411c59.1,33.6,117.7,66.8,177,100.5C560.6,545.1,502,578.4,442.7,612z"/>
	</g>
</g>
</svg>
